<?xml version="1.0" encoding="UTF-8"?>
<svg width="300" height="190" version="1.1" viewBox="0 0 101 61" xmlns="http://www.w3.org/2000/svg">

   <path d="m78.42 5.21c0.8466 0.37966 1.6248 0.9163 2.3401 1.5072 0.62002 0.51217 1.6658 1.7452 1.6658 1.7452l-0.83293 0.71393s1.3017-0.63341 1.9832-0.87259c0.96831-0.33987 1.9528-0.6995 2.9747-0.79326 1.1885-0.10904 2.4704-0.18702 3.5697 0.27764 0.68163 0.28812 1.2795 0.83638 1.6658 1.4675 0.33482 0.54698 0.44298 1.2237 0.47596 1.8642 0.0186 0.36039-0.15865 1.0709-0.15865 1.0709s1.4168-0.78186 2.1815-1.0312c0.87021-0.28379 1.7855-0.59765 2.6971-0.51563 0.80453 0.0724 1.7608 0.23819 2.2608 0.8726 0.37154 0.47139 0.324 1.1908 0.23798 1.7848-0.0975 0.67357-0.4182 1.3245-0.83292 1.8642-0.43533 0.56647-1.0555 0.97728-1.6658 1.3486-0.59181 0.35997-1.2415 0.63018-1.9038 0.83292-0.62982 0.19278-1.2966 0.23288-1.9435 0.35697-0.9269 0.1778-2.7764 0.55528-2.7764 0.55528l-20.466-10.828s1.427-0.97962 2.1418-1.4675c0.33013-0.22534 0.63083-0.50215 0.99158-0.67427 0.66061-0.31519 1.3742-0.55852 2.1021-0.63461 0.62026-0.0648 1.2504 0.0483 1.8642 0.15865 0.48618 0.0874 0.97714 0.1945 1.4279 0.39663z" fill="#FFB300" stroke="#FF5722" stroke-width="1.5"/>

   <path d="m14.826 11.27c1.0023-0.81356 2.1131-1.5302 3.314-2.0038 1.3921-0.54902 2.8965-0.91726 4.3929-0.92482 0.65495-3e-3 1.3128 0.15712 1.9267 0.38534 1.2724 0.473 2.5039 1.133 3.5452 2.0038 1.0497 0.87778 2.6203 3.1598 2.6203 3.1598s-1.3402-3.1664-1.079-4.7783c0.23052-1.4221 1.2218-2.6751 2.235-3.6993 1.3386-1.3532 3.0737-2.3356 4.8553-3.0057 1.6089-0.60509 3.3726-0.97819 5.0866-0.84776 1.7254 0.1313 3.409 0.79783 4.9324 1.6184 1.9639 1.0579 3.5476 2.7093 5.2407 4.1617 0.71746 0.61549 1.2705 1.44 2.0809 1.9267 0.5363 0.32209 1.7726 0.61656 1.7726 0.61656s-1.2899-0.75626-1.7726-1.3102c-0.42296-0.48535-0.87456-1.0537-0.92483-1.6955-0.0298-0.38074 0.13665-0.78913 0.38534-1.079 0.70359-0.82002 1.8172-1.2292 2.8516-1.5414 1.3582-0.40992 2.8205-0.35058 4.2388-0.38535 1.8507-0.0454 3.7186-0.0463 5.549 0.23121 1.2876 0.19525 2.6354 0.37394 3.7764 1.0019 0.82815 0.4558 1.8287 1.0157 2.0809 1.9267 0.17132 0.61897-0.32814 1.2432-0.53949 1.8497-0.24648 0.70726-0.73446 1.3405-0.84776 2.0809-0.0468 0.30579 0.0771 0.92483 0.0771 0.92483s0.32489-1.4495 0.69362-2.0809c0.3669-0.62823 0.83347-1.2561 1.4643-1.6184 0.86503-0.49692 1.9312-0.60018 2.9286-0.61655 1.3302-0.0218 2.6822 0.23343 3.9305 0.69362 0.95081 0.35052 1.9286 0.80086 2.6204 1.5414 0.62741 0.67164 1.2124 1.5474 1.2331 2.4662 0.0208 0.9209 0.14602 2.0143-0.23121 2.4662-0.84992 1.0182-2.8119 2.7019-2.8119 2.7019s2.1331-1.4087 3.3514-1.7c0.8495-0.20314 1.7637-0.17072 2.6203 0 1.4458 0.28814 2.8509 0.88859 4.0847 1.6955 0.74507 0.48732 1.443 1.1022 1.9267 1.8497 0.83002 1.2824 1.0688 2.8632 1.5414 4.3159 0.14084 0.43289 0.38535 1.3102 0.38535 1.3102s-1.8905 0.40289-2.8516 0.46242c-0.69277 0.0429-1.3968 0.0403-2.0809-0.0771-0.42443-0.0728-1.2331-0.38535-1.2331-0.38535s0.66009 0.62963 1.079 0.77069c0.82813 0.27888 1.7467 0.0962 2.6204 0.0771 1.0558-0.023 2.1396-0.50391 3.1598-0.2312 0.92928 0.24839 1.8806 0.80194 2.3891 1.6184 0.58964 0.94676 0.52737 2.2005 0.46241 3.314-0.10669 1.8288-0.56929 3.6786-1.3872 5.3178-0.84912 1.7016-2.0599 3.2824-3.5452 4.47-1.2025 0.96153-2.6697 1.6238-4.1617 2.0038-0.99705 0.25389-2.0553 0.2078-3.0828 0.15414-1.1683-0.061-3.4681-0.53948-3.4681-0.53948s0.97042 1.0479 1.2331 1.6955c0.40968 1.01 0.50424 2.1478 0.46241 3.2369-0.0364 0.94669-0.22577 1.9114-0.61655 2.7745-0.53834 1.1889-1.3102 2.3234-2.3121 3.1598-1.5347 1.2812-3.4784 2.051-5.3948 2.6203-2.7551 0.81859-5.6822 1.1769-8.5547 1.079-1.3344-0.0455-2.7088-0.2323-3.9305-0.77069-0.67236-0.29629-1.254-0.78966-1.7726-1.3102-0.33726-0.33853-0.84776-1.156-0.84776-1.156s7e-3 1.1771-0.2312 1.6955c-0.50092 1.0917-1.3666 2.0672-2.3891 2.6974-1.5383 0.94815-3.4487 1.1541-5.2407 1.3872-2.2163 0.28837-4.4831 0.24129-6.705 0-2.3796-0.25841-4.8244-0.57288-7.0133-1.5414-1.584-0.70085-3.0722-1.7254-4.2388-3.0057-0.89923-0.98688-1.5897-2.1988-2.0038-3.4681-0.22436-0.68776-0.23121-2.1579-0.23121-2.1579l0.21707-3.0618s-0.77235 2.9031-1.0648 5.1426c-0.2023 1.5491-1.857 2.7502-3.314 3.314-2.0387 0.78885-4.4414 0.26511-6.5509-0.30828-1.6522-0.4491-3.2104-1.3192-4.5471-2.3891-1.0529-0.84281-2.0753-1.8491-2.6203-3.0828-0.40819-0.92395-0.70295-2.0468-0.38534-3.0057 0.3142-0.94858 1.2712-1.5723 2.0809-2.1579 0.62379-0.45115 1.4862-0.51305 2.0809-1.0019 0.29768-0.24469 0.69362-0.92483 0.69362-0.92483s-2.6491 1.2822-3.9305 2.0038c-0.55285 0.31134-1.0069 0.83284-1.6184 1.0019-1.6592 0.45863-3.5962 0.63442-5.1636-0.0771-2.5507-1.1578-4.4387-3.7054-5.626-6.2426-1.0779-2.3034-1.3074-5.0199-1.079-7.5528 0.20428-2.2655 0.82448-4.631 2.1579-6.4738 0.80722-1.1156 2.0068-2.0332 3.314-2.4662 1.829-0.60587 5.7802 0 5.7802 0s-1.131-1.9276-1.2331-3.0057c-0.15824-1.6702 0.23362-3.441 1.0019-4.9324 0.48275-0.93717 1.3394-1.6476 2.1579-2.312z" fill="#FFB300" stroke="#FF5722" stroke-width="1.5"/>

</svg>
