<?xml version="1.0" encoding="UTF-8"?>
<svg width="360" height="520" version="1.1" viewBox="0 0 360 520" xmlns="http://www.w3.org/2000/svg">
<g class="marciano">
  <g transform="translate(0 -532.36)">
    <g transform="translate(-23.518 -210.56)">
      <g transform="translate(442.37 549.46)">
        <g fill="#b3c618"  stroke-width="4">
          <path d="m-310.14 500.97c0.14715 14.086-11.174 19.461-33.588 19.951-18.364 0.40098-29.709-10.829-32.072-19.445-2.8956-10.556 11.275-25.41 19.951-13.385 8.3907 11.63 45.551-2.3187 45.709 12.879z" stroke="#000"/>
          <path d="m-106.09 483.57c-3.153 6.2711-5.1697 13.89-25.001 21.718-22.681 8.9531-38.676-34.316-19.445-20.203 16.199 11.889 28.597-17.665 33.082-19.698 11.565-5.242 14.18 12.583 11.364 18.183z" stroke="#000"/>
          <path d="m-260.17 608.73c0.86465 6.5092 38.1 3.3174 51.681 1.6811 7.7066-0.92849-1.2282 56.524 2.8571 57.143 8.8797 1.3451 19.617 5.4649 28.572 2.1428 3.4725-1.2884 7.6523-4.1589 7.8571-7.8571 0.2529-4.5667-4.6645-8.3365-8.5714-10.714-3.1113-1.8935-10.714-2.1429-10.714-2.1429-0.3696-13.699 2.3386-31.438 5.7143-40.714 0.5125-1.4083 25.016 4.2578 36.428-2.8571 5.2881-3.2968 12.601-6.902 12.056-13.11-3.0001-34.213-2.9817-60.578-7.7704-90.462-4.2583-26.573-9.221-50.636-18.572-78.571-2.1965-6.5625 18.106 8.432 27.857 9.2857 6.4739 0.56685 13.199-0.57879 19.286-2.8572 6.6185-2.4776 12.814-6.4783 17.857-11.429 4.2887-4.2093 7.6415-9.473 10-15 3.4463-8.0759 5.7143-25.714 5.7143-25.714s-1.3483-14.763-4.2857-21.429c-3.5719-8.1055-8.8807-15.793-15.714-21.429-7.313-6.031-16.401-10.378-25.714-12.143-7.0335-1.333-14.764-1.1838-21.428 1.4286-5.9894 2.3475-10.625 7.4268-15 12.143-2.5604 2.7599-3.9396 12.11-6.4286 9.2857 0 0-8.187-12.884-14.286-17.143-5.8043-4.0527-20-7.1428-20-7.1428 2.5514-6.1637 8.6695-10.355 11.428-16.429 2.0301-4.469 3.2756-9.3862 3.5715-14.286 0.4628-7.6644-0.5289-15.54-2.8572-22.857-2.2933-7.207-5.5754-14.451-10.714-20-6.9111-7.4628-15.99-13.444-25.714-16.429-8.425-2.5856-17.838-2.682-26.429-0.71428-7.6383 1.7496-14.808 5.8481-20.88 10.801-7.563 6.1686-14.31 13.912-18.406 22.77-2.4403 5.2781-3.3061 11.328-3.2322 17.143 0.10833 8.5231 1.659 17.329 5.3751 25 3.0967 6.3925 8.8048 11.162 13.571 16.429 0 0-13.394 3.5707-18.571 7.8572-4.6288 3.8321-10 15-10 15-4.5248-4.826-10.944-7.6899-17.143-10-7.2638-2.7069-15.11-4.5428-22.857-4.2857-8.5997 0.28537-17.421 2.3553-25 6.4286-8.7609 4.7084-17.024 11.472-22.143 20-4.547 7.5754-6.2789 16.88-6.4286 25.714-0.17326 10.226 1.7375 20.912 6.4286 30 3.5557 6.8882 9.2977 12.793 15.714 17.143 6.1128 4.1435 13.372 7.0631 20.714 7.8571 6.4611 0.69877 12.933-1.4853 19.286-2.8571 5.0829-1.0977 15.329-9.4754 15-4.2857-3.1184 49.207-8.2482 102.25-10 152.86-0.22664 6.547 1.6133 14.13 6.4286 18.571 5.6031 5.1683 14.581 4.7543 22.143 5.7143 6.3774 0.80962 19.141-6.427 19.286 0 0.3293 14.655 2.8572 39.286 2.8572 39.286 0.39383 5.4151-10.253 5.2358-12.857 10-1.2613 2.3076-1.9941 5.5597-0.71428 7.8571 1.8136 3.2557 6.276 5.145 10 5 9.0146-0.35101 23.248 1.5662 22.857-5.7143-0.96846-18.027 1.0774-62.086 1.8903-55.967z" stroke="black"/>
        </g>
        <g transform="translate(-424.14 4)" class="ojos">
          <ellipse cx="181.93" cy="276.51" rx="36.401" ry="33.901" fill="#fff" stroke="#000" stroke-width="5"/>
          <circle cx="179.81" cy="276.27" r="1" fill="#fff"/>
          <ellipse cx="180.29" cy="276.22" rx="11.536" ry="13.679"  stroke="#000" stroke-width="5"/>
        </g>
        <ellipse cx="-347.53" cy="383.14" rx="36.281" ry="35.776" fill="#fff" stroke="black" stroke-width="4"/>
        <ellipse cx="-347.03" cy="381.12" rx="13.637" ry="13.637"/>
        <g transform="translate(-612.11 26.284)">
          <ellipse cx="483.36" cy="347.28" rx="31.763" ry="32.269" fill="#fff" stroke="black" stroke-width="4"/>
          <circle cx="483.86" cy="347.28" r="13.132"/>
          <circle cx="487.71" cy="349.47" r="1" fill="#fff"/>
        </g>
        <g transform="translate(-410.12 60.447)" stroke="#000" stroke-width="4">
          <path d="m220.49 383.26c-6.3376 35.225-33.467 42.843-61.184 36.521-26.723-6.096-41.827-40.29-33.548-74.745 7.449-31.001 35.073-47.312 61.162-36.57 26.089 10.742 41.012 44.531 33.335 75.479" fill="#323333"/>
          <path d="m138.85 404.77c1.663-2.9815 4.4825-7.1806 8.2143-8.2143 2.8382-0.78614 6.1417 0.47858 8.5714 2.1428 2.0438 1.3999 3.5801 3.6968 4.2857 6.0714 1.1293 3.8007 0.85941 6.1927-0.44007 11.887-0.94433 4.1378 0.76451-4.644 5.4005-10.815 2.0067-2.6713 4.7039-3.0934 5.7972-3.0664 3.9956 0.099 5.9033 0.9253 7.8138 2.7092 3.6875 3.4432 3.7182 9.8601 5 14.286 1.5227 5.2573-1.8069-10.836 3.2793-14.661 2.0539-1.5446 4.0087-2.4871 6.2373-2.4171 3.1637 0.0995 5.5444 1.1531 9.3037 4.2207 0.55341 0.4516 1.1568 1.5999 1.1364 2.5217-0.0176 0.79195-0.57115 1.507-1.0714 2.1212-1.8129 2.2256-4.1914 4.041-6.7424 5.3571-4.9555 2.5568-10.503 4.3431-16.071 4.6429-6.8794 0.37033-13.528-1.2788-20.357-3.5714-5.6711-1.9037-11.337-4.6409-15.988-8.4018 0 0-5.4011-2.9613-4.3686-4.8124z" fill="#fff"/>
          <path d="m141.36 320.4c5.0679-4.6504 8.0283-6.6919 11.786-9.2857 2.1934-1.5142 4.7553-2.4941 7.3214-3.2143 3.8742-1.0873 7.9413-1.6918 11.964-1.6072 3.7473 0.0788 7.5891 0.57799 11.071 1.9643 5.2304 2.0822 11.283 4.4158 14.107 9.2857 0.47872 0.82547 0.47303 1.9495 0.17858 2.8572-0.95245 2.936-3.0162 6.0239-5.8929 7.1428-2.8008 1.0894-6.3289 0.25767-8.9286-1.25-2.0187-1.1707-3.4773-3.3466-4.2857-5.5357-0.84648-2.2921-0.44065-4.8795-0.35714-7.3214 0.0696-2.0366 0.95238-8.0952 0.71429-6.0714-0.71429 6.0714-1.7683 10.405-4.6429 14.643-0.94985 1.4002-2.3061 2.7345-3.9286 3.2143-1.5506 0.45857-3.2809-0.0442-4.8214-0.53572-1.1677-0.37259-2.351-0.91568-3.2143-1.7857-0.52534-0.52942-0.80655-1.2671-1.0714-1.9643-0.56408-1.4848-0.92603-3.0612-1.0714-4.6429-0.2509-2.7292 0.95239-9.9405 0.35715-8.2143-1.7857 5.1786-0.89828 4.5186-1.6071 10-0.29518 2.2825-0.31626 4.1784-1.4286 5.3571-1.5071 1.5971-3.4739 2.8157-5.5357 3.5714-1.2963 0.47515-2.7597 0.83675-4.1072 0.53571-1.7242-0.38523-3.2827-1.5436-4.4643-2.8571-1.0682-1.1874-3.4818-3.0571-2.1428-4.2857z" fill="#fff"/>
        </g>
      </g>
    </g>
  </g>
</g>
</svg>