<svg width="200" height="200" viewBox="0 0 200 200" xmlns="http://www.w3.org/2000/svg">

 <g transform="matrix(1.8009 0 0 1.8009 -61.944 -31.705)" fill="none">
  <ellipse cx="72.187" cy="52.987" rx="7.9573" ry="7.8252" stroke="#2e0239" stroke-linecap="square" stroke-width="2"/>
  <ellipse cx="93.379" cy="53.157" rx="7.9573" ry="7.8252" stroke="#230239" stroke-linecap="square" stroke-width="2"/>
  <g stroke="#2e0239">
   <path d="m78.916 48.717a3.8585 2.6635 0 0 1 1.9756-2.3018 3.8585 2.6635 0 0 1 3.8754 0.044 3.8585 2.6635 0 0 1 1.8649 2.3454"
         stroke-linecap="square" stroke-width="1.5"/>
   <path d="m66.951 47.117s5.4386-14.293 11.696-17.411c1.9475-0.97037 6.5179 0.35714 6.5179 0.35714v0"
         stroke-linecap="round" stroke-width="2"/>
   <path d="m99.66 48.287s5.4386-14.293 11.696-17.411c1.9475-0.97037 6.5179 0.35714 6.5179 0.35714v0"
         stroke-linecap="round" stroke-width="2"/>
  </g>
 </g>
 <rect x="27.53" y="81.66" width="161.38" height="32.24" fill="#ff000f" fill-opacity=".94118"/>
 <rect x="34.07" y="89.669" width="39.766" height="16.374" fill="#e8641b"/>
 <rect x="19.53" y="113.9" width="169.5" height="5.0084" fill="#333"/>
 <g fill="none" stroke="#000" stroke-width="1px">
  <path d="m19.984 121.54c168.03 0 168.42 0.38986 168.42 0.38986"/>
  <path d="m19.928 124.46c168.03 0 168.42 0.38986 168.42 0.38986"/>
  <path d="m19.995 127.53c168.03 0 168.42 0.38986 168.42 0.38986"/>
  <path d="m19.995 129.92c168.03 0 168.42 0.38986 168.42 0.38986"/>
  <path d="m20.081 132.96c168.03 0 168.42 0.38986 168.42 0.38986"/>
 </g>
 <g>
  <rect x="19.403" y="135.9" width="169.5" height="5.0084" fill="#333"/>
  <rect x="12.775" y="140.91" width="180.48" height="43.936" fill="#c08b61"/>
  <rect x="164.52" y="145.37" width="11.696" height="35.088" fill="#00a49d"/>
  <rect x="148.25" y="145.42" width="11.696" height="35.088" fill="#00a8ec"/>
 </g>
</svg>
