<?xml version="1.0" encoding="UTF-8"?>
<!-- Created with Inkscape (http://www.inkscape.org/) -->
<svg width="200" height="200" version="1.1" viewBox="0 0 200 200" xmlns="http://www.w3.org/2000/svg" xmlns:cc="http://creativecommons.org/ns#" xmlns:dc="http://purl.org/dc/elements/1.1/" xmlns:rdf="http://www.w3.org/1999/02/22-rdf-syntax-ns#">
 <metadata>
  <rdf:RDF>
   <cc:Work rdf:about="">
    <dc:format>image/svg+xml</dc:format>
    <dc:type rdf:resource="http://purl.org/dc/dcmitype/StillImage"/>
    <dc:title/>
   </cc:Work>
  </rdf:RDF>
 </metadata>
 <g transform="translate(0 -244.08)">
  <rect x="1.6509" y="291.49" width="196.93" height="112.03" fill="#0079b9" style="paint-order:fill markers stroke"/>
  <path d="m11.099 282.94c0.6229-0.61917 54.063 0.33616 78.021-0.1129 5.6088-0.10514 11.081 4.8929 11.1 10.816 0.11924 36.518-0.1746 106.19-0.1746 106.19s-1.7354-9.8041-9.3918-9.865c-24.874-0.19786-79.598-0.50813-79.598-0.50813z" fill="#fff" stroke="#000" stroke-width=".87314px"/>
  <path d="m188.99 282.94c-0.62289-0.61917-54.063 0.33616-78.021-0.1129-5.6088-0.10514-11.118 4.8929-11.1 10.816 0.11661 37.698 0.1746 106.19 0.1746 106.19s1.7354-9.8041 9.3918-9.865c24.874-0.19786 79.598-0.50813 79.598-0.50813z" fill="#fff" stroke="#000" stroke-width=".87314px"/>
  <path transform="scale(-1)" d="m-113.2-400.96a13.09 12.854 0 0 1 6.4589-11.381 13.09 12.854 0 0 1 13.268 8e-3 13.09 12.854 0 0 1 6.4452 11.388l-13.086-0.31146z" fill="#0079b9" style="paint-order:fill markers stroke"/>
  <rect x="21.226" y="291.72" width="19.575" height="28.066" fill="#e8330c" style="paint-order:fill markers stroke"/>
  <rect x="46.462" y="291.72" width="12.028" height="5.4245" style="paint-order:fill markers stroke"/>
  <rect x="46.226" y="302.58" width="26.179" height="5.4245" fill="#808080" style="paint-order:fill markers stroke"/>
  <rect x="46.33" y="314.37" width="18.632" height="5.4245" style="paint-order:fill markers stroke"/>
  <rect x="60.491" y="291.72" width="29.953" height="5.4245" fill="#808080" style="paint-order:fill markers stroke"/>
  <rect x="73.698" y="302.58" width="16.509" height="5.4245" style="paint-order:fill markers stroke"/>
  <rect x="66.962" y="314.37" width="23.349" height="5.4245" fill="#808080" style="paint-order:fill markers stroke"/>
  <rect x="19.637" y="328.64" width="12.028" height="5.4245" fill="#999" style="paint-order:fill markers stroke"/>
  <rect x="19.401" y="339.49" width="21.462" height="5.4245" style="paint-order:fill markers stroke"/>
  <rect x="19.505" y="351.28" width="18.632" height="5.4245" fill="#999" style="paint-order:fill markers stroke"/>
  <rect x="33.665" y="328.64" width="21.226" height="5.4245" style="paint-order:fill markers stroke"/>
  <rect x="43.108" y="339.49" width="24.868" height="5.4245" fill="#808080" style="paint-order:fill markers stroke"/>
  <rect x="40.052" y="351.28" width="9.434" height="5.4245" style="paint-order:fill markers stroke"/>
  <rect x="18.995" y="364.01" width="26.179" height="5.4245" style="paint-order:fill markers stroke"/>
  <rect x="19.099" y="375.8" width="11.792" height="5.4245" fill="#808080" style="paint-order:fill markers stroke"/>
  <rect x="46.467" y="364.01" width="16.509" height="5.4245" fill="#808080" style="paint-order:fill markers stroke"/>
  <rect x="32.892" y="375.8" width="34.783" height="5.4245" style="paint-order:fill markers stroke"/>
  <rect x="110.41" y="292.55" width="12.028" height="5.4245" style="paint-order:fill markers stroke"/>
  <rect x="110.17" y="303.41" width="18.396" height="5.4245" fill="#999" style="paint-order:fill markers stroke"/>
  <rect x="110.27" y="315.19" width="9.9057" height="5.4245" style="paint-order:fill markers stroke"/>
  <rect x="124.43" y="292.55" width="29.953" height="5.4245" fill="#808080" style="paint-order:fill markers stroke"/>
  <rect x="130.7" y="303.41" width="28.066" height="5.4245" style="paint-order:fill markers stroke"/>
  <rect x="122.18" y="315.19" width="23.349" height="5.4245" fill="#808080" style="paint-order:fill markers stroke"/>
  <rect x="109.76" y="327.93" width="31.472" height="5.4245" fill="#808080" style="paint-order:fill markers stroke"/>
  <rect x="109.87" y="339.72" width="18.632" height="5.4245" style="paint-order:fill markers stroke"/>
  <rect x="143.24" y="327.93" width="16.509" height="5.4245" style="paint-order:fill markers stroke"/>
  <rect x="130.5" y="339.72" width="11.792" height="5.4245" fill="#808080" style="paint-order:fill markers stroke"/>
  <rect x="110.35" y="351.75" width="30.066" height="5.4245" fill="#999" style="paint-order:fill markers stroke"/>
  <rect x="144.42" y="351.75" width="13.906" height="5.4245" style="paint-order:fill markers stroke"/>
  <rect x="110.53" y="364.49" width="46.226" height="5.4245" style="paint-order:fill markers stroke"/>
  <rect x="109.93" y="376.28" width="18.632" height="5.4245" fill="#808080" style="paint-order:fill markers stroke"/>
  <rect x="157.82" y="364.49" width="23.349" height="5.4245" fill="#808080" style="paint-order:fill markers stroke"/>
  <rect x="130.57" y="376.28" width="50.472" height="5.4245" style="paint-order:fill markers stroke"/>
  <rect x="56.892" y="328.64" width="33.255" height="5.4245" fill="#999" style="paint-order:fill markers stroke"/>
  <rect x="71.976" y="339.49" width="18.632" height="5.4245" style="paint-order:fill markers stroke"/>
  <rect x="51.486" y="351.28" width="38.755" height="5.4245" fill="#808080" style="paint-order:fill markers stroke"/>
  <rect x="64.976" y="364.01" width="25.236" height="5.4245" style="paint-order:fill markers stroke"/>
  <rect x="69.675" y="375.8" width="20.028" height="5.4245" fill="#808080" style="paint-order:fill markers stroke"/>
  <rect x="156.41" y="292.55" width="23.349" height="5.4245" style="paint-order:fill markers stroke"/>
  <rect x="160.76" y="303.41" width="18.632" height="5.4245" fill="#808080" style="paint-order:fill markers stroke"/>
  <rect x="147.53" y="315.19" width="32.547" height="5.4245" style="paint-order:fill markers stroke"/>
  <rect x="161.84" y="327.93" width="18.868" height="5.4245" fill="#808080" style="paint-order:fill markers stroke"/>
  <rect x="143.66" y="339.72" width="36.557" height="5.4245" style="paint-order:fill markers stroke"/>
  <rect x="161.16" y="351.75" width="19.689" height="5.4245" fill="#808080" style="paint-order:fill markers stroke"/>
 </g>
</svg>
