<?xml version="1.0" encoding="UTF-8"?>
<svg width="929" height="435" version="1.1" viewBox="0 0 1029 535"  xmlns="http://www.w3.org/2000/svg">
<g>
 <polygon points="80,80 0,100 80,120 100,200 120,120 200,100 120,80 100,0"
   stroke="none">
   <animate attributeName="fill"
     attributeType="css"
     values="purple;white;purple"
     dur="3s"
     repeatCount="indefinite"/>
 </polygon>
 <polygon points="80,80 0,100 80,120 100,200 120,120 200,100 120,80 100,0"
   stroke="none"
   transform="rotate(45 100 100)">
   <animate attributeName="fill"
     attributeType="css"
     values="white;purple;white"
     dur="3s"
     repeatCount="indefinite"/>
 </polygon>
</g>
<g transform="translate(300 170)">
 <polygon points="80,80 0,100 80,120 100,200 120,120 200,100 120,80 100,0"
   stroke="none">
   <animate attributeName="fill"
     attributeType="css"
     values="purple;white;purple"
     dur="3s"
     repeatCount="indefinite"/>
 </polygon>
 <polygon points="80,80 0,100 80,120 100,200 120,120 200,100 120,80 100,0"
   stroke="none"
   transform="rotate(45 100 100)">
   <animate attributeName="fill"
     attributeType="css"
     values="white;purple;white"
     dur="3s"
     repeatCount="indefinite"/>
 </polygon>
</g>
<g transform="translate(550 25)">
 <polygon points="80,80 0,100 80,120 100,200 120,120 200,100 120,80 100,0"
   stroke="none">
   <animate attributeName="fill"
     attributeType="css"
     values="purple;white;purple"
     dur="3s"
     repeatCount="indefinite"/>
 </polygon>
 <polygon points="80,80 0,100 80,120 100,200 120,120 200,100 120,80 100,0"
   stroke="none"
   transform="rotate(45 100 100)">
   <animate attributeName="fill"
     attributeType="css"
     values="white;purple;white"
     dur="3s"
     repeatCount="indefinite"/>
 </polygon>
</g>
<g transform="translate(800 330)">
 <polygon points="80,80 0,100 80,120 100,200 120,120 200,100 120,80 100,0"
   stroke="none">
   <animate attributeName="fill"
     attributeType="css"
     values="purple;white;purple"
     dur="3s"
     repeatCount="indefinite"/>
 </polygon>
 <polygon points="80,80 0,100 80,120 100,200 120,120 200,100 120,80 100,0"
   stroke="none"
   transform="rotate(45 100 100)">
   <animate attributeName="fill"
     attributeType="css"
     values="white;purple;white"
     dur="3s"
     repeatCount="indefinite"/>
 </polygon>
</g>

<g transform="translate(50 330)">
 <polygon points="80,80 0,100 80,120 100,200 120,120 200,100 120,80 100,0"
   stroke="none">
   <animate attributeName="fill"
     attributeType="css"
     values="purple;white;purple"
     dur="3s"
     repeatCount="indefinite"/>
 </polygon>
 <polygon points="80,80 0,100 80,120 100,200 120,120 200,100 120,80 100,0"
   stroke="none"
   transform="rotate(45 100 100)">
   <animate attributeName="fill"
     attributeType="css"
     values="white;purple;white"
     dur="3s"
     repeatCount="indefinite"/>
 </polygon>
</g>
</svg>
