<?xml version="1.0" encoding="UTF-8"?>

<svg width="1029" height="535" version="1.1" viewBox="0 0 1029 535" xmlns="http://www.w3.org/2000/svg">

 <rect x="0" y="0" width="1029" height="535" fill="red" stroke=""/>

 <polyline fill="gold" points="0,0 30,0 280.5,200.5 0,50"/>
 <polyline fill="gold" points="140,0 280.5,200.5 190,0"/>
 <polyline fill="gold" points="290,0 280.5,200.5 360,0"/>
 <polyline fill="gold" points="450,0 280.5,200.5 510,0"/>
 <polyline fill="gold" points="730,0 280.5,200.5 800,0"/>
 <polyline fill="gold" points="1029,100 280.5,200.5 1029,190"/>
 <polyline fill="gold" points="1029,320 280.5,200.5 1000,440"/>
 <polyline fill="gold" points="840,535 280.5,200.5 900,535"/>
 <polyline fill="gold" points="590,535 280.5,200.5 640,535"/>
 <polyline fill="gold" points="350,535 280.5,200.5 290,535"/>
 <polyline fill="gold" points="0,420 280.5,200.5 0,490"/>
 <polyline fill="gold" points="0,380 280.5,200.5 0,330"/>
 <polyline fill="gold" points="0,200 280.5,200.5 0,230"/>

 <circle cx="140" cy="190" r="7" fill="gold"/>
 <circle cx="120" cy="190" r="6" fill="gold"/>
 <circle cx="100" cy="190" r="5" fill="gold"/>
 <circle cx="80" cy="190" r="4" fill="gold"/>
 <circle cx="60" cy="190" r="3" fill="gold"/>
 <circle cx="40" cy="190" r="2" fill="gold"/>

</svg>
